<svg width="343" height="586" viewBox="0 0 343 586" fill="none" xmlns="http://www.w3.org/2000/svg">
<path d="M68.9209 555.121C78.7884 553.148 89.7837 555.121 159.985 555.121C230.185 555.121 270.501 552.866 289.955 549.765C309.408 546.664 352.825 553.994 340.984 564.425C329.143 574.857 213.269 589.799 193.534 581.341C173.799 572.883 19.8649 590.927 32.2699 570.346C42.1938 553.881 60.8389 553.336 68.9209 555.121Z" fill="black" fill-opacity="0.13"/>
<g clip-path="url(#clip0_1_216)">
<path d="M129.068 144.747C127.648 145.55 126.196 145.652 125.812 144.978L121.608 137.563C121.223 136.89 122.064 135.694 123.479 134.889C124.899 134.087 126.358 133.983 126.738 134.654L130.942 142.068C131.326 142.742 130.484 143.942 129.068 144.747Z" fill="#2B242A"/>
<path d="M123.757 133.531C123.757 133.531 121.939 135.665 124.775 140.664C127.61 145.663 130.379 145.198 130.379 145.198C130.379 145.198 162.738 125.175 167.036 122.742C171.334 120.309 167.314 111.143 162.129 114.089C156.943 117.034 123.757 133.531 123.757 133.531Z" fill="#BC7BFB"/>
<g style="mix-blend-mode:soft-light">
<path d="M129.906 144.13C135.502 140.67 161.682 124.499 165.515 122.32L165.596 122.272C161.538 119.97 129.49 143.189 129.906 144.13Z" fill="white"/>
</g>
<g style="mix-blend-mode:multiply">
<path d="M130.284 143.21C129.664 141.113 129.543 138.935 130.5 136.904C131.711 134.32 133.83 132.315 135.983 130.497C141.08 126.201 146.477 122.506 153.06 120.973C157.908 119.848 163.241 119.703 167.623 122.316C170.94 119.412 167.05 111.297 162.129 114.089C156.949 117.024 123.76 133.526 123.76 133.526C123.76 133.526 121.942 135.66 124.777 140.659C127.613 145.658 130.381 145.194 130.381 145.194L130.917 144.86C130.666 144.326 130.454 143.774 130.284 143.21Z" fill="#BC7BFB"/>
</g>
<g style="mix-blend-mode:soft-light">
<g style="mix-blend-mode:soft-light">
<path d="M132.871 143.66L123.491 137.693C123.677 138.337 123.917 138.964 124.208 139.567L131.736 144.358C132.05 144.18 132.442 143.92 132.871 143.66Z" fill="white"/>
</g>
<g style="mix-blend-mode:soft-light">
<path d="M137.563 140.762L125.121 132.845L123.864 133.483L136.423 141.469C136.797 141.233 137.176 140.998 137.563 140.762Z" fill="white"/>
</g>
<g style="mix-blend-mode:soft-light">
<path d="M143.797 136.912L132.008 129.418C131.578 129.627 131.17 129.841 130.75 130.056L142.659 137.627L143.797 136.912Z" fill="white"/>
</g>
<g style="mix-blend-mode:soft-light">
<path d="M150.039 133.074L138.857 125.967L137.604 126.607L148.875 133.777L150.039 133.074Z" fill="white"/>
</g>
<g style="mix-blend-mode:soft-light">
<path d="M156.291 129.24L145.764 122.538L144.512 123.178L155.137 129.922L156.291 129.24Z" fill="white"/>
</g>
<g style="mix-blend-mode:soft-light">
<path d="M162.558 125.413L152.563 119.086C152.156 119.288 151.733 119.494 151.316 119.729L161.417 126.108L162.558 125.413Z" fill="white"/>
</g>
<g style="mix-blend-mode:soft-light">
<path d="M166.354 120.018L159.36 115.572L158.128 116.222L167.607 122.245L166.354 120.018Z" fill="white"/>
</g>
</g>
<path d="M172.764 118.94C177.554 116.221 216.512 116.712 227.118 117.067C225.049 114.249 202.983 106.996 202.983 106.996C202.983 106.996 207.246 111.266 200.79 111.573C191.936 112 181.629 112.188 179.571 112.23C176.301 112.284 175.983 110.582 177.388 108.433C178.24 107.124 183.745 98.2888 188.959 90.7061C191.574 86.9034 194.061 91.3348 194.061 91.3348C194.061 91.3348 202.388 60.494 197.759 65.2969C192.426 76.4233 173.419 107.992 168.221 110.924C163.023 113.857 167.97 121.65 172.764 118.94Z" fill="#352E35"/>
<path d="M222.367 45.566C243.253 33.7192 267.863 37.662 277.345 54.3791C286.329 70.2214 278.465 91.8679 259.838 104.143C260.618 105.225 261.507 106.279 262.174 107.425C282.987 93.7128 291.739 69.5748 281.719 51.8951C271.148 33.2527 243.689 28.8422 220.384 42.0622C217.638 43.6151 215.018 45.3824 212.55 47.3476C213.343 48.4421 214.196 49.492 215.105 50.4925C217.388 48.6564 219.817 47.0088 222.367 45.566Z" fill="#BC7BFB"/>
<path d="M280.99 70.9028L280.06 71.4252L277.933 67.7179L280.931 65.9959C280.91 65.7338 280.88 65.4742 280.851 65.2147L277.586 67.0694L275.472 63.3621L279.199 61.245L280.651 63.7961C280.521 63.0277 280.365 62.2721 280.179 61.5142L279.85 60.9058L280.016 60.8115C279.952 60.5724 279.885 60.3382 279.82 60.0864L279.506 60.2648L277.389 56.5373L278.254 56.0582L277.94 55.4195L277.06 55.929L274.946 52.1965L275.697 51.7685L275.273 51.1884L274.591 51.5757L272.689 48.2807C272.141 47.7341 271.57 47.2079 270.955 46.697L271.424 47.5567L267.691 49.6713L265.607 45.9286L268.075 44.5299C267.852 44.3824 267.624 44.2324 267.397 44.095L265.258 45.3102L263.357 41.9598C262.922 41.7454 262.465 41.5766 262.012 41.3977L258.443 43.4105L256.326 39.683L255.266 39.4622L251.611 41.5461L250.067 38.824L249.217 38.776L251.003 41.8749L247.27 43.9895L245.156 40.257L247.85 38.7309C247.363 38.7237 246.879 38.7239 246.39 38.7343L244.776 39.649L244.308 38.8271L243.524 38.8871L244.156 40.0031L240.423 42.1177L238.935 39.4987L238.195 39.6366L239.8 42.4768L236.09 44.5837L233.975 40.8512L234.656 40.464C233.602 40.7551 232.544 41.0764 231.5 41.4229L229.275 42.684L229.077 42.385L228.398 42.679L228.647 43.1163L224.917 45.1754L224.489 44.4239C224.273 44.5311 224.063 44.6373 223.861 44.7427L224.296 45.5169L220.574 47.6239L220.148 46.8799L219.545 47.2617L219.948 47.9755L216.22 50.0926L216.007 49.7736C215.813 49.9235 215.623 50.0683 215.434 50.2207L215.572 50.4645L214.142 51.2747C213.267 52.0212 212.424 52.7918 211.613 53.5866L213.71 57.2915L209.978 59.4061L208.525 56.8423C208.358 57.0299 208.192 57.2251 208.034 57.4176L209.359 59.7551L205.642 61.8772L205.217 61.1333C205.069 61.356 204.916 61.5763 204.769 61.7991L205.016 62.2288L204.194 62.6976C203.934 63.1101 203.685 63.5277 203.44 63.9477L205.37 62.8497L207.485 66.5822L203.732 68.6868L202.249 66.0703C202.122 66.3282 202 66.5761 201.868 66.8441L203.116 69.0434L200.238 70.6739C200.045 71.2071 199.861 71.7453 199.683 72.286L201.601 75.6641L198.437 77.4551C198.388 77.758 198.349 78.0407 198.301 78.3562L201.95 76.2824L204.07 80.0174L200.337 82.132L198.279 78.5026C198.226 78.9038 198.178 79.3076 198.15 79.6961L199.719 82.4684L197.982 83.4418C197.989 83.7091 197.995 83.9763 198.007 84.2461L200.058 83.0818L202.173 86.8143L198.563 88.8576C198.787 89.9549 199.074 91.0385 199.422 92.1031L200.288 93.6363L200.029 93.779L200.323 94.4582L200.662 94.2671L202.777 97.9996L202.309 98.2595C202.434 98.4656 202.561 98.6666 202.696 98.865L203.131 98.6204L204.965 101.863C205.598 102.589 206.268 103.282 206.972 103.939L206.221 102.62L209.953 100.505L212.063 104.235L209.217 105.85C209.42 106.013 209.628 106.166 209.84 106.321L212.442 104.868L214.557 108.601L214.049 108.891L214.823 109.273L214.911 109.222L214.985 109.352C215.349 109.532 215.713 109.711 216.095 109.855L215.532 108.868L219.264 106.753L221.379 110.485L220.001 111.265C220.325 111.362 220.643 111.455 220.966 111.539L221.733 111.106L222.151 111.84L223.09 112.052L222.326 110.72L225.684 108.816L227.798 112.549L227.544 112.694C227.966 112.732 228.387 112.77 228.813 112.798L232.498 110.704L233.711 112.848L234.513 112.803L233.112 110.377L236.844 108.263L238.747 111.621L237.005 112.604C237.663 112.545 238.27 112.448 238.91 112.348L239.094 112.244L239.135 112.314L239.883 112.186L239.715 111.89L243.447 109.775L244.262 111.208L244.985 111.017L244.083 109.429L247.816 107.314L249.133 109.642L249.807 109.383L248.436 106.96L252.169 104.845L253.751 107.643L254.39 107.329L252.785 104.501L256.517 102.387L258.133 105.245L258.743 104.873L257.136 102.038L260.868 99.923L262.297 102.444C262.493 102.302 262.684 102.157 262.875 102.012L261.489 99.5689L265.221 97.4543L266.24 99.2136C266.423 99.0461 266.599 98.8812 266.78 98.7188L265.855 97.0875L269.587 94.9729L269.931 95.5509C270.104 95.3659 270.267 95.1758 270.435 94.9882L270.233 94.6313L271.209 94.081C271.617 93.5843 272.02 93.0852 272.408 92.5786L269.879 94.0105L267.976 90.6525L271.668 88.5179L273.268 91.3431C273.423 91.1304 273.576 90.9101 273.726 90.6949L272.289 88.1638L276.021 86.0492L276.294 86.5293C276.419 86.2764 276.543 86.0235 276.668 85.7706L276.622 85.6851L276.75 85.6163C276.94 85.2319 277.127 84.8526 277.314 84.4732L276.268 85.0643L274.153 81.3318L277.886 79.2172L278.823 80.8736C278.933 80.5754 279.037 80.2747 279.133 79.9766L278.507 78.8631L279.693 78.1905C279.782 77.8697 279.868 77.5414 279.95 77.2232L278.16 78.2271L276.045 74.4946L279.791 72.4051L280.649 73.9283C280.715 73.5396 280.768 73.151 280.819 72.7548L280.414 72.046L280.922 71.7556C280.948 71.473 280.974 71.1904 280.99 70.9028ZM214.336 56.9146L212.221 53.1821L215.954 51.0675L218.068 54.8L214.336 56.9146ZM218.694 54.4484L216.58 50.7159L220.312 48.6013L222.427 52.3338L218.694 54.4484ZM223.053 51.9822L220.938 48.2497L224.67 46.1351L226.785 49.8676L223.053 51.9822ZM227.411 49.516L225.294 45.7885L229.026 43.6739L231.143 47.4014L227.411 49.516ZM231.767 47.0548L229.617 43.3301L233.349 41.2155L235.464 44.948L231.767 47.0548ZM208.123 66.2053L205.968 62.4906L209.701 60.376L211.818 64.1035L208.123 66.2053ZM212.479 63.7441L210.327 60.0244L214.059 57.9098L216.174 61.6423L212.479 63.7441ZM216.837 61.2779L214.685 57.5582L218.418 55.4436L220.532 59.1761L216.837 61.2779ZM221.196 58.8116L219.043 55.092L222.776 52.9774L224.891 56.7099L221.196 58.8116ZM225.554 56.3454L223.402 52.6257L227.134 50.5111L229.249 54.2436L225.554 56.3454ZM229.913 53.8792L227.758 50.1646L231.49 48.05L233.607 51.7774L229.913 53.8792ZM234.271 51.413L232.154 47.6855L235.886 45.5709L238.003 49.2984L234.271 51.413ZM238.627 48.9518L236.512 45.2193L240.245 43.1047L242.359 46.8372L238.627 48.9518ZM242.985 46.4856L240.871 42.7531L244.603 40.6385L246.718 44.371L242.985 46.4856ZM202.222 75.2974L200.107 71.5649L203.465 69.6617L205.58 73.3942L202.222 75.2974ZM206.201 73.0401L204.086 69.3076L207.819 67.193L209.933 70.9255L206.201 73.0401ZM210.559 70.5739L208.442 66.8464L212.175 64.7318L214.292 68.4593L210.559 70.5739ZM214.915 68.1127L212.8 64.3802L216.533 62.2656L218.648 65.9981L214.915 68.1127ZM219.273 65.6465L217.159 61.914L220.891 59.7994L223.006 63.5319L219.273 65.6465ZM223.632 63.1803L221.517 59.4478L225.25 57.3332L227.364 61.0657L223.632 63.1803ZM227.99 60.7141L225.876 56.9815L229.608 54.8669L231.723 58.5994L227.99 60.7141ZM232.349 58.2478L230.231 54.5204L233.964 52.4058L236.081 56.1332L232.349 58.2478ZM236.707 55.7816L234.59 52.0542L238.322 49.9396L240.414 53.6293L236.707 55.7816ZM241.063 53.3204L238.948 49.5879L242.681 47.4733L244.795 51.2058L241.063 53.3204ZM245.421 50.8542L243.307 47.1217L247.039 45.0071L249.154 48.7396L245.421 50.8542ZM249.78 48.388L247.624 44.6103L251.357 42.4957L253.469 46.2333L249.78 48.388ZM254.138 45.9218L252.023 42.1893L255.756 40.0747L257.87 43.8072L254.138 45.9218ZM204.691 79.6507L202.576 75.9182L205.944 74.02L208.059 77.7525L204.691 79.6507ZM208.68 77.3984L206.565 73.6659L210.303 71.5538L212.417 75.2863L208.68 77.3984ZM213.038 74.9322L210.921 71.2047L214.658 69.0926L216.776 72.8201L213.038 74.9322ZM217.399 72.4609L215.284 68.7284L219.017 66.6264L221.131 70.3589L217.399 72.4609ZM221.757 69.9947L219.643 66.2622L223.375 64.1476L225.49 67.8801L221.757 69.9947ZM226.116 67.5285L224.001 63.796L227.728 61.6789L229.848 65.4139L226.116 67.5285ZM230.474 65.0622L228.359 61.3297L232.087 59.2126L234.206 62.9476L230.474 65.0622ZM234.832 62.596L232.715 58.8686L236.448 56.754L238.565 60.4814L234.832 62.596ZM239.191 60.1298L237.074 56.4023L240.801 54.2852L242.923 58.0152L239.191 60.1298ZM243.547 57.6686L241.432 53.9361L245.159 51.819L247.274 55.5515L243.547 57.6686ZM247.905 55.2024L245.79 51.4699L249.518 49.3528L251.632 53.0853L247.905 55.2024ZM252.263 52.7362L250.091 48.9687L253.818 46.8516L255.93 50.5892L252.263 52.7362ZM256.622 50.27L254.507 46.5375L258.235 44.4204L260.349 48.1529L256.622 50.27ZM260.98 47.8037L258.863 44.0763L262.59 41.9592L264.708 45.6866L260.98 47.8037ZM202.877 86.495L200.762 82.7625L204.495 80.6479L206.513 84.3456L202.877 86.495ZM207.235 84.0288L205.126 80.2988L208.484 78.3956L210.593 82.1256L207.235 84.0288ZM211.219 81.774L209.008 78.0068L212.736 75.8897L214.85 79.6222L211.219 81.774ZM215.577 79.3078L213.364 75.5456L217.092 73.4285L219.209 77.156L215.577 79.3078ZM219.936 76.8416L217.723 73.0794L221.45 70.9623L223.567 74.6897L219.936 76.8416ZM224.292 74.3804L222.081 70.6132L225.809 68.4961L227.923 72.2286L224.292 74.3804ZM228.65 71.9142L226.439 68.1469L230.167 66.0298L232.286 69.7396L228.65 71.9142ZM233.008 69.448L230.798 65.6807L234.525 63.5636L236.64 67.2961L233.008 69.448ZM237.367 66.9817L235.154 63.2195L238.881 61.1024L240.998 64.8299L237.367 66.9817ZM241.725 64.5155L239.522 60.7331L243.25 58.616L245.341 62.3436L241.725 64.5155ZM246.081 62.0543L243.87 58.2871L247.598 56.17L249.715 59.8974L246.081 62.0543ZM250.439 59.5881L248.325 55.8556L252.057 53.741L254.172 57.4735L250.439 59.5881ZM254.798 57.1219L252.552 53.3246L256.284 51.21L258.396 54.9475L254.798 57.1219ZM259.156 54.6557L257.042 50.9232L260.774 48.8086L262.889 52.5411L259.156 54.6557ZM263.515 52.1895L261.397 48.462L265.13 46.3474L267.247 50.0748L263.515 52.1895ZM200.916 93.2923L198.802 89.5597L202.534 87.4451L204.649 91.1777L200.916 93.2923ZM205.275 90.826L203.16 87.0935L206.893 84.9789L209.007 88.7114L205.275 90.826ZM209.633 88.3598L207.508 84.6223L210.866 82.7192L212.981 86.4517L209.633 88.3598ZM213.617 86.1051L211.502 82.3725L215.23 80.2555L217.344 83.988L213.617 86.1051ZM217.975 83.6388L215.863 79.9139L219.591 77.7968L221.708 81.5242L217.975 83.6388ZM222.334 81.1726L220.217 77.4452L223.949 75.3306L226.066 79.058L222.334 81.1726ZM226.69 78.7114L224.575 74.9789L228.308 72.8643L230.422 76.5968L226.69 78.7114ZM231.048 76.2452L228.913 72.4775L232.641 70.3604L234.753 74.098L231.048 76.2452ZM235.406 73.779L233.292 70.0465L237.024 67.9319L239.139 71.6644L235.406 73.779ZM239.765 71.3128L237.65 67.5803L241.38 65.4707L243.497 69.1982L239.765 71.3128ZM244.123 68.8465L241.963 65.079L245.695 62.9644L247.808 66.702L244.123 68.8465ZM248.479 66.3854L246.364 62.6529L250.097 60.5383L252.214 64.2657L248.479 66.3854ZM252.837 63.9192L250.723 60.1867L254.455 58.072L256.57 61.8046L252.837 63.9192ZM257.196 61.4529L255.018 57.683L258.75 55.5684L260.863 59.3059L257.196 61.4529ZM261.554 58.9867L259.44 55.2542L263.172 53.1396L265.287 56.8721L261.554 58.9867ZM265.913 56.5205L263.795 52.793L267.528 50.6784L269.645 54.4059L265.913 56.5205ZM270.271 54.0543L268.073 50.2869L271.805 48.1723L273.918 51.9099L270.271 54.0543ZM203.385 97.6456L201.271 93.9131L205.003 91.7985L207.118 95.531L203.385 97.6456ZM207.744 95.1794L205.629 91.4468L209.361 89.3322L211.476 93.0647L207.744 95.1794ZM212.102 92.7131L209.987 88.9806L213.345 87.0775L215.46 90.81L212.102 92.7131ZM216.081 90.4559L213.966 86.7234L217.699 84.6088L219.813 88.3413L216.081 90.4559ZM220.439 87.9897L218.322 84.2622L222.054 82.1476L224.172 85.8751L220.439 87.9897ZM224.795 85.5285L222.68 81.796L226.413 79.6814L228.53 83.4088L224.795 85.5285ZM229.153 83.0623L227.039 79.3298L230.771 77.2152L232.886 80.9477L229.153 83.0623ZM233.512 80.596L231.374 76.8334L235.107 74.7188L237.219 78.4564L233.512 80.596ZM237.87 78.1298L235.755 74.3973L239.488 72.2827L241.603 76.0152L237.87 78.1298ZM242.228 75.6636L240.114 71.9311L243.844 69.8215L245.961 73.549L242.228 75.6636ZM246.587 73.1974L244.429 69.4374L248.162 67.3228L250.274 71.0603L246.587 73.1974ZM250.943 70.7362L248.828 67.0037L252.561 64.8891L254.675 68.6216L250.943 70.7362ZM255.301 68.27L253.186 64.5375L256.919 62.4229L259.034 66.1554L255.301 68.27ZM259.659 65.8038L257.484 62.0413L261.217 59.9267L263.329 63.6643L259.659 65.8038ZM264.018 63.3375L261.903 59.605L265.636 57.4904L267.75 61.2229L264.018 63.3375ZM268.376 60.8713L266.259 57.1439L269.994 55.0242L272.109 58.7567L268.376 60.8713ZM272.735 58.4051L270.539 54.6453L274.272 52.5307L276.384 56.2683L272.735 58.4051ZM205.864 101.979L203.749 98.2462L207.482 96.1315L209.596 99.8641L205.864 101.979ZM210.222 99.5124L208.108 95.7799L211.84 93.6653L213.955 97.3978L210.222 99.5124ZM214.581 97.0462L212.466 93.3137L215.824 91.4106L217.939 95.1431L214.581 97.0462ZM218.559 94.789L216.404 91.0617L220.137 88.9471L222.252 92.6796L218.559 94.789ZM222.918 92.3227L220.77 88.5803L224.503 86.4657L226.63 90.2108L222.918 92.3227ZM227.276 89.8565L225.119 86.1343L228.851 84.0197L230.968 87.7472L227.276 89.8565ZM231.632 87.3954L229.477 83.6681L233.21 81.5535L235.324 85.286L231.632 87.3954ZM235.99 84.9291L233.84 81.1918L237.573 79.0772L239.685 82.8147L235.99 84.9291ZM240.349 82.4629L238.194 78.7357L241.926 76.6211L244.041 80.3536L240.349 82.4629ZM244.707 79.9967L242.552 76.2695L246.285 74.1549L248.399 77.8874L244.707 79.9967ZM249.066 77.5305L246.911 73.8032L250.643 71.6886L252.74 75.4187L249.066 77.5305ZM253.424 75.0642L251.266 71.3421L254.999 69.2275L257.116 72.9549L253.424 75.0642ZM257.78 72.6031L255.625 68.8758L259.342 66.7285L261.457 70.461L257.78 72.6031ZM262.138 70.1368L259.95 66.3997L263.683 64.2851L265.795 68.0227L262.138 70.1368ZM266.497 67.6706L264.382 63.9381L268.114 61.8235L270.229 65.556L266.497 67.6706ZM270.855 65.2044L268.738 61.477L272.397 59.3325L274.512 63.065L270.855 65.2044ZM275.213 62.7382L273.005 59.0037L276.738 56.8891L278.85 60.6266L275.213 62.7382ZM212.676 103.884L210.561 100.151L214.294 98.0364L216.403 101.766L212.676 103.884ZM217.034 101.417L214.92 97.6848L218.278 95.7816L220.392 99.5141L217.034 101.417ZM221.013 99.16L218.898 95.4275L222.631 93.3129L224.746 97.0454L221.013 99.16ZM225.371 96.6938L223.252 92.9462L226.984 90.8316L229.101 94.559L225.371 96.6938ZM229.73 94.2276L227.613 90.5001L231.345 88.3855L233.462 92.113L229.73 94.2276ZM234.086 91.7664L231.971 88.0339L235.704 85.9193L237.818 89.6518L234.086 91.7664ZM238.444 89.3002L236.307 85.5502L240.039 83.4356L242.151 87.1731L238.444 89.3002ZM242.802 86.834L240.688 83.1015L244.42 80.9868L246.535 84.7194L242.802 86.834ZM247.161 84.3677L245.046 80.6352L248.753 78.483L250.863 82.213L247.161 84.3677ZM251.519 81.9015L249.362 78.1541L253.094 76.0395L255.201 79.7746L251.519 81.9015ZM255.878 79.4353L253.76 75.7078L257.493 73.5932L259.605 77.3182L255.878 79.4353ZM260.233 76.9741L258.119 73.2416L261.808 71.0869L263.918 74.8169L260.233 76.9741ZM264.592 74.5079L262.417 70.7581L266.149 68.6435L268.256 72.3786L264.592 74.5079ZM268.95 72.0417L266.836 68.3092L270.568 66.1946L272.678 69.9246L268.95 72.0417ZM273.309 69.5755L271.192 65.848L274.927 63.7283L277.036 67.4584L273.309 69.5755ZM215.21 108.269L213.096 104.537L216.823 102.42L218.938 106.152L215.21 108.269ZM219.569 105.803L217.454 102.07L220.736 100.13L222.851 103.862L219.569 105.803ZM223.548 103.546L221.433 99.8132L225.165 97.6986L227.28 101.431L223.548 103.546ZM227.906 101.08L225.718 97.3046L229.448 95.195L231.56 98.92L227.906 101.08ZM232.264 98.6133L230.147 94.8859L233.88 92.7712L235.992 96.4962L232.264 98.6133ZM236.623 96.1471L234.506 92.4196L238.233 90.3025L240.348 94.035L236.623 96.1471ZM240.979 93.6859L238.773 89.9085L242.526 87.8039L244.635 91.5339L240.979 93.6859ZM245.337 91.2197L243.222 87.4872L246.95 85.3701L249.064 89.1026L245.337 91.2197ZM249.695 88.7535L247.581 85.021L251.214 82.8388L253.329 86.5713L249.695 88.7535ZM254.054 86.2872L251.828 82.5125L255.555 80.3954L257.667 84.133L254.054 86.2872ZM258.412 83.821L256.295 80.0936L260.022 77.9765L262.14 81.7039L258.412 83.821ZM262.768 81.3598L260.658 77.6298L264.269 75.4428L266.384 79.1753L262.768 81.3598ZM267.126 78.8936L264.883 75.1165L268.61 72.9994L270.722 76.7369L267.126 78.8936ZM271.485 76.4274L269.37 72.6949L273.098 70.5778L275.212 74.3103L271.485 76.4274ZM275.843 73.9612L273.726 70.2337L277.461 68.1141L279.576 71.8466L275.843 73.9612ZM267.454 91.0489L269.357 94.4069L265.624 96.5215L263.721 93.1635L267.454 91.0489ZM263.098 93.5101L265.001 96.868L261.269 98.9827L259.221 95.5851L263.098 93.5101ZM258.638 95.9264L260.542 99.2844L256.809 101.399L254.906 98.041L258.638 95.9264ZM254.28 98.3926L256.183 101.751L252.451 103.865L250.548 100.507L254.28 98.3926ZM249.922 100.859L251.825 104.217L248.092 106.331L246.167 102.981L249.922 100.859ZM245.568 103.315L247.471 106.673L243.739 108.788L241.836 105.43L245.568 103.315ZM241.21 105.781L243.116 109.134L239.383 111.249L237.477 107.896L241.21 105.781ZM273.565 81.6832L275.68 85.4157L271.947 87.5303L269.81 83.8307L273.565 81.6832ZM269.207 84.1494L271.321 87.8819L267.589 89.9966L265.474 86.264L269.207 84.1494ZM264.849 86.6157L266.966 90.3431L263.233 92.4703L261.116 88.7429L264.849 86.6157ZM260.49 89.0819L262.6 92.8497L258.867 94.9643L256.755 91.2268L260.49 89.0819ZM256.134 91.5431L258.249 95.2756L254.516 97.3902L252.402 93.6577L256.134 91.5431ZM251.776 94.0093L253.89 97.7418L250.158 99.8564L248.043 96.1239L251.776 94.0093ZM247.417 96.4755L249.532 100.208L245.805 102.325L243.685 98.5901L247.417 96.4755ZM243.059 98.9417L245.174 102.674L241.441 104.789L239.327 101.056L243.059 98.9417ZM238.701 101.408L240.818 105.135L237.085 107.25L234.968 103.523L238.701 101.408ZM234.345 103.869L236.515 107.654L232.788 109.771L230.65 106.021L234.345 103.869ZM229.986 106.335L232.101 110.068L228.374 112.185L226.259 108.452L229.986 106.335ZM221.926 110.089L219.812 106.356L223.164 104.451L225.279 108.183L221.926 110.089ZM225.905 107.832L223.79 104.099L227.518 101.982L229.632 105.715L225.905 107.832ZM230.263 105.365L228.184 101.663L231.909 99.5509L234.026 103.278L230.263 105.365ZM234.622 102.899L232.515 99.1893L236.242 97.0722L238.359 100.8L234.622 102.899ZM238.978 100.438L236.873 96.7231L240.626 94.5932L242.74 98.3257L238.978 100.438ZM243.336 97.9718L241.229 94.2619L244.956 92.1448L247.071 95.8773L243.336 97.9718ZM247.694 95.5056L245.575 91.7706L249.307 89.656L251.422 93.3885L247.694 95.5056ZM252.053 93.0393L249.948 89.3244L253.681 87.1972L255.795 90.9297L252.053 93.0393ZM256.411 90.5731L254.299 86.8734L258.027 84.7563L260.134 88.4913L256.411 90.5731ZM260.769 88.1069L258.663 84.397L262.395 82.2824L264.512 86.0099L260.769 88.1069ZM265.125 85.6457L263.021 81.9308L266.736 79.8012L268.85 83.5337L265.125 85.6457ZM269.484 83.1795L267.369 79.4848L271.102 77.3702L273.189 81.0953L269.484 83.1795ZM277.564 78.5937L273.837 80.7108L271.717 76.9758L275.45 74.8612L277.564 78.5937Z" fill="url(#paint0_linear_1_216)"/>
<path d="M264.4 105.919C263.32 105.071 262.308 104.139 261.373 103.133C259.87 104.199 258.315 105.188 256.713 106.097C235.798 117.924 211.214 113.994 201.734 97.2844C193.064 82.0303 199.991 61.456 217.104 48.9628C216.178 47.9789 215.365 46.8951 214.68 45.7314C195.462 59.6514 187.659 82.7046 197.327 99.7459C207.895 118.393 235.342 122.791 258.662 109.579C260.642 108.468 262.558 107.246 264.4 105.919Z" fill="#352E35"/>
<path d="M221.023 46.3551L218.387 43.2459C215.729 44.8883 213.205 46.7386 210.839 48.7794L213.465 51.8835C215.819 49.8247 218.348 47.9749 221.023 46.3551Z" fill="#D1D1D1"/>
<path d="M258.436 105.036L261.067 108.143C263.711 106.477 266.221 104.608 268.574 102.551L265.939 99.4423C263.607 101.523 261.096 103.395 258.436 105.036Z" fill="#D1D1D1"/>
<g style="mix-blend-mode:soft-light">
<path d="M278.393 53.556C287.715 69.9991 279.259 92.5165 259.523 104.604C260.079 104.325 260.627 104.029 261.167 103.717C281.609 92.1599 289.488 69.5904 279.936 52.7074C270.385 35.8243 245.584 32.8686 228.256 41.2955C223.045 43.8448 218.134 46.9653 213.613 50.5996C215.942 49.0756 224.756 43.1162 231.44 40.6643C250.169 33.7574 270.039 38.8347 278.393 53.556Z" fill="white"/>
</g>
<path d="M198.953 99.0758C189.201 81.8736 199.141 64.4693 202.942 57.5983C192.329 69.8875 189.813 86.5251 197.435 99.9369C205.781 114.661 224.587 119.603 240.677 115.972C231.272 117.096 207.689 114.488 198.953 99.0758Z" fill="#2B242A"/>
<path d="M173.342 119.96C173.027 120.109 172.665 120.129 172.336 120.013C172.007 119.898 171.736 119.658 171.583 119.345L167.38 111.93C167.188 111.638 167.12 111.281 167.191 110.939C167.262 110.597 167.465 110.297 167.757 110.104C168.072 109.953 168.434 109.933 168.764 110.049C169.093 110.164 169.364 110.405 169.516 110.72L173.717 118.127C173.908 118.42 173.976 118.777 173.906 119.12C173.836 119.463 173.633 119.765 173.342 119.96Z" fill="#2B242A"/>
<path d="M167.357 111.117L163.202 113.473L168.109 122.125L172.263 119.769L167.357 111.117Z" fill="#161013"/>
<path d="M168.448 122.735C168.132 122.886 167.769 122.905 167.439 122.79C167.108 122.674 166.837 122.432 166.684 122.117L162.483 114.71C162.292 114.416 162.224 114.059 162.294 113.716C162.364 113.373 162.567 113.071 162.858 112.877C163.175 112.727 163.537 112.708 163.867 112.825C164.197 112.942 164.468 113.184 164.62 113.499L168.821 120.907C169.011 121.199 169.078 121.555 169.008 121.897C168.938 122.239 168.737 122.54 168.448 122.735Z" fill="#2B242A"/>
</g>
<path d="M125.175 239.641C123.37 234.003 124.423 190.304 125.175 169.159L135.456 172.824C134.61 181.282 144.628 208.065 144.628 210.36C150.622 206.535 160.765 203.649 167.182 202.427C171.223 206.843 179.024 216.016 177.896 217.369C176.486 219.06 127.43 246.69 125.175 239.641Z" fill="#FF7CA6"/>
<mask id="mask0_1_216" style="mask-type:alpha" maskUnits="userSpaceOnUse" x="124" y="169" width="55" height="72">
<path d="M125.176 239.641C123.372 234.003 124.424 190.303 125.176 169.158L135.457 172.824C134.611 181.281 144.629 208.065 144.629 210.359C150.623 206.535 160.766 203.649 167.184 202.426C171.225 206.843 179.025 216.015 177.897 217.369C176.487 219.06 127.431 246.689 125.176 239.641Z" fill="#FF7CA6"/>
</mask>
<g mask="url(#mask0_1_216)">
<path d="M121.793 243.588C119.989 237.95 121.041 194.251 121.793 173.106L132.074 176.771C131.228 185.229 141.246 212.012 141.246 214.307C147.24 210.483 157.384 207.596 163.801 206.374C167.842 210.79 175.642 219.963 174.514 221.316C173.104 223.007 124.049 250.637 121.793 243.588Z" fill="#FB94B5"/>
<path d="M120.102 249.227C118.297 243.588 119.35 199.889 120.102 178.744L129.819 174.797C128.973 183.255 139.555 217.651 139.555 219.945C145.549 216.121 155.692 213.235 162.109 212.012C166.15 216.429 173.95 225.601 172.823 226.955C171.413 228.646 122.357 256.275 120.102 249.227Z" fill="#FFAFC9"/>
<path d="M125.872 183.255C126.098 181.676 125.027 176.771 124.463 174.515L116.287 239.923C120.328 241.145 128.804 243.701 130.383 244.152C132.357 244.716 146.527 235.548 144.48 235.694C136.586 236.258 127.846 239.641 127 238.513C126.154 237.386 126.436 235.412 126.436 231.747C126.436 228.804 126.154 214.267 125.872 212.012C125.59 209.756 125.872 204.118 125.872 202.708C125.872 201.299 125.59 185.229 125.872 183.255Z" fill="#FEF2F7"/>
</g>
<path d="M183.032 482.647C176.462 474.551 189.516 378.684 196.864 331.763C210.829 326.525 225.729 309.574 231.433 301.753C231.532 303.068 233.373 308.005 239.947 317.228C246.521 326.452 250.633 335.703 251.868 339.176C252.89 372.328 235.662 431.325 226.919 456.68C253.97 459.027 284.562 488.372 296.725 503.098L290.598 523.984C286.736 521.366 272.629 513.561 247.105 503.278C215.201 490.425 191.245 492.767 183.032 482.647Z" fill="url(#paint1_linear_1_216)"/>
<mask id="mask1_1_216" style="mask-type:alpha" maskUnits="userSpaceOnUse" x="181" y="301" width="116" height="223">
<path d="M183.032 482.647C176.462 474.551 189.516 378.684 196.864 331.763C210.829 326.525 225.729 309.574 231.433 301.753C231.532 303.068 233.373 308.005 239.947 317.228C246.521 326.452 250.633 335.703 251.868 339.176C252.89 372.328 235.662 431.325 226.919 456.68C253.97 459.027 284.562 488.372 296.725 503.098L290.598 523.984C286.736 521.366 272.629 513.561 247.105 503.278C215.201 490.425 191.245 492.767 183.032 482.647Z" fill="#F89AB8"/>
</mask>
<g mask="url(#mask1_1_216)">
<path d="M176.286 488.31C169.716 480.214 182.77 384.348 190.118 337.426C204.083 332.188 216.947 312.989 222.651 305.168C222.75 306.483 226.627 313.668 233.201 322.892C239.775 332.115 232.019 333.797 233.253 337.27C234.246 369.477 230.949 427.644 222.627 454.311C221.894 455.542 221.782 456.865 221.6 457.663C221.555 457.861 221.595 458.073 221.735 458.22C222.204 458.715 223.314 459.811 224.057 459.944C251.985 464.354 296.258 505.746 308.009 519.973L283.852 529.647C279.99 527.029 265.884 519.224 240.36 508.941C208.455 496.088 184.499 498.43 176.286 488.31Z" fill="#FBC6D7"/>
<mask id="mask2_1_216" style="mask-type:alpha" maskUnits="userSpaceOnUse" x="174" y="305" width="135" height="225">
<path d="M176.286 488.31C169.716 480.214 182.77 384.348 190.118 337.426C204.083 332.188 216.947 312.989 222.651 305.168C222.75 306.483 226.627 313.668 233.201 322.892C239.775 332.115 232.019 333.797 233.253 337.27C234.246 369.477 230.949 427.644 222.627 454.311C221.894 455.542 221.782 456.865 221.6 457.663C221.555 457.861 221.595 458.073 221.735 458.22C222.204 458.715 223.314 459.811 224.057 459.944C251.985 464.354 296.258 505.746 308.009 519.973L283.852 529.647C279.99 527.029 265.884 519.224 240.36 508.941C208.455 496.088 184.499 498.43 176.286 488.31Z" fill="#FBC6D7"/>
</mask>
<g mask="url(#mask2_1_216)">
<path d="M215.452 436.574C221.216 393.418 210.423 354.268 215.763 349.738C239.022 414.31 308.51 518.449 303.764 515.76L293.615 515.796C287.626 496.928 229.467 474.585 218.712 463.346C214.582 459.03 214.441 442.687 215.452 436.574Z" fill="#FEB3CB"/>
</g>
<path d="M198.646 371.791C201.995 362.531 205.852 337.557 204.399 325.533C180.781 343.38 175.039 470.553 175.077 480.984C175.107 489.329 240.654 527.641 273.424 545.754L302.948 523.939C289.943 513.93 239.634 495.129 233.754 490.639C226.403 485.027 195.102 483.167 191.419 478.388C187.737 473.608 191.321 451.322 191.268 436.662C191.215 422.002 194.458 383.365 198.646 371.791Z" fill="#FEF2F7"/>
</g>
<path d="M199.184 345.365L166.48 311.815C125.6 349.03 118.551 381.17 110.657 395.831C102.763 410.491 105.019 406.544 98.5344 427.971C92.05 449.398 66.6762 505.22 67.2401 514.242C67.6911 521.459 78.7052 521.76 84.1559 521.008C132.197 449.736 136.971 425.528 132.93 422.05C165.634 401.3 190.444 362.093 199.184 345.365Z" fill="#FF7CA6"/>
<mask id="mask3_1_216" style="mask-type:alpha" maskUnits="userSpaceOnUse" x="67" y="311" width="133" height="211">
<path d="M199.184 345.365L166.48 311.815C125.6 349.03 118.551 381.17 110.657 395.831C102.763 410.491 105.019 406.544 98.5344 427.971C92.05 449.398 66.6762 505.22 67.2401 514.242C67.6911 521.459 78.7052 521.76 84.1559 521.008C132.197 449.736 136.971 425.528 132.93 422.05C165.634 401.3 190.444 362.093 199.184 345.365Z" fill="#FF7CA6"/>
</mask>
<g mask="url(#mask3_1_216)">
<path d="M193.545 345.365L160.841 311.815C119.961 349.03 112.913 381.17 105.019 395.831C97.1248 410.491 99.3803 406.544 92.8959 427.971C86.4115 449.398 61.0377 505.22 61.6016 514.242C62.0526 521.459 73.0667 521.76 78.5174 521.008C120.571 458.619 126.839 436.805 127.846 424.87C127.989 423.17 129.256 421.487 128.974 419.795C130.409 418.884 132.648 418.225 134.049 417.258C164.55 396.171 185.189 361.359 193.545 345.365Z" fill="#FEB3CB"/>
<path d="M181.977 329.013L157.458 307.868C116.578 345.083 109.53 377.223 101.636 391.884C93.7418 406.544 95.9973 402.597 89.5129 424.024C83.0285 445.451 57.6547 501.273 58.2186 510.295C58.6696 517.512 70.8022 519.223 76.2529 518.471C93.7326 491.405 119.791 435.959 120.798 424.024C120.941 422.324 122.208 420.641 121.926 418.949C123.361 418.038 129.265 414.278 130.666 413.311C161.167 392.224 173.621 345.007 181.977 329.013Z" fill="#FBC6D7"/>
<path d="M138.56 353.823C141.041 350.666 160.457 326.758 169.855 315.199C168.633 313.131 165.231 309.335 161.397 310.688C156.604 312.379 140.252 322.529 115.442 345.929C90.632 369.33 58.2099 510.013 56.5183 513.678C55.1651 516.61 63.4726 517.531 67.7956 517.625C75.7836 497.044 92.4363 454.303 95.1429 447.988C98.526 440.094 108.676 409.082 110.085 405.417C111.495 401.752 135.459 357.77 138.56 353.823Z" fill="#FEF2F7"/>
</g>
<path d="M207.068 392.447C181.581 359.067 155.286 339.068 145.325 333.242C146.678 328.956 158.858 317.36 164.778 312.097C187.558 350.44 219.191 325.066 232.16 307.586C263.285 324.953 254.714 365.57 246.538 383.707C237.422 387.467 219.191 394.477 219.191 392.447V373.84C215.357 379.253 209.511 388.5 207.068 392.447Z" fill="url(#paint2_linear_1_216)"/>
<mask id="mask4_1_216" style="mask-type:alpha" maskUnits="userSpaceOnUse" x="145" y="307" width="110" height="86">
<path d="M207.068 392.447C181.581 359.067 155.286 339.068 145.325 333.242C146.678 328.956 158.858 317.36 164.778 312.097C187.558 350.44 219.191 325.066 232.16 307.586C263.285 324.953 254.714 365.57 246.538 383.707C237.422 387.467 219.191 394.477 219.191 392.447V373.84C215.357 379.253 209.511 388.5 207.068 392.447Z" fill="url(#paint3_linear_1_216)"/>
</mask>
<g mask="url(#mask4_1_216)">
<path d="M143.916 325.348C153.632 332.498 159.791 335.46 176.056 352.132C194.381 367.356 206.349 381.312 210.451 385.399C217.245 392.169 215.075 390.144 215.526 391.884C233.006 387.373 247.046 382.129 255.842 375.814" stroke="white" stroke-opacity="0.5" stroke-width="0.563862"/>
<path d="M225.111 313.516C231.689 312.952 254.432 336.917 235.824 391.893" stroke="white" stroke-opacity="0.49" stroke-width="0.563862"/>
<path d="M216.653 342.546C215.525 347.902 208.571 350.722 204.812 351.849V347.62C208.195 349.199 212.988 346.493 216.653 342.546Z" fill="url(#paint4_linear_1_216)"/>
<path d="M177.464 337.189C184.982 340.76 203.007 345.76 214.961 337.189C212.424 344.331 201.372 354.33 177.464 337.189Z" fill="url(#paint5_linear_1_216)"/>
<path d="M230.186 306.852C234.401 309.199 241.562 321.334 244.283 340.854C245.421 349.022 248.991 356.629 246.82 365.946C245.04 373.588 240.651 385.378 235.543 393.122L267.965 379.872C265.898 357.317 259.62 311.137 251.049 306.852C242.478 302.566 233.569 305.066 230.186 306.852Z" fill="#647B64" fill-opacity="0.5"/>
<path d="M150.964 332.114C154.629 336.062 172.39 352.413 172.109 354.951L142.788 332.96L145.607 323.375L164.496 309.278C170.135 312.003 180.623 318.3 177.465 321.683C174.308 325.066 169.759 321.401 167.88 319.146C162.241 321.683 161.113 321.683 159.14 323.375C157.166 328.731 150.964 331.551 150.964 332.114Z" fill="url(#paint6_linear_1_216)"/>
</g>
<path d="M222.371 254.301C224.176 274.826 231.581 300.068 235.058 310.124C200.381 358.898 168.804 328.449 165.421 317.454C162.715 308.658 162.978 274.131 163.448 257.966C155.836 254.301 140.329 234.848 152.171 225.262C161.643 217.594 179.249 202.99 188.459 194.814H204.247C222.855 208.629 220.116 228.646 222.371 254.301Z" fill="url(#paint7_linear_1_216)"/>
<mask id="mask5_1_216" style="mask-type:alpha" maskUnits="userSpaceOnUse" x="147" y="194" width="89" height="143">
<path d="M222.372 254.302C224.177 274.826 231.582 300.068 235.059 310.124C200.382 358.898 168.806 328.449 165.422 317.454C162.716 308.658 162.979 274.131 163.449 257.967C155.837 254.302 140.331 234.848 152.172 225.263C161.645 217.594 179.251 202.99 188.46 194.814H204.248C222.856 208.629 220.117 228.646 222.372 254.302Z" fill="url(#paint8_linear_1_216)"/>
</mask>
<g mask="url(#mask5_1_216)">
<path d="M208.759 216.803C208.759 230.037 198.925 236.822 186.418 236.822C173.91 236.822 161.959 226.094 161.959 212.86C161.959 199.626 171.793 192.841 184.301 192.841C196.808 192.841 208.759 203.569 208.759 216.803Z" fill="#647B64"/>
<path d="M206.65 216.063C206.65 228.109 197.526 234.285 185.923 234.285C174.32 234.285 161.959 223.674 161.959 211.627C161.959 199.581 171.082 193.405 182.686 193.405C194.289 193.405 206.65 204.016 206.65 216.063Z" fill="#647B64"/>
<path d="M168.162 275.931C169.739 269.505 160.359 259.517 158.012 256.839L153.501 316.178L160.259 324.784C169.552 322.203 162.619 308.637 168.162 296.873C171.541 289.701 166.191 283.964 168.162 275.931Z" fill="url(#paint9_linear_1_216)"/>
<path d="M173.777 285.878C175.75 295.37 168.42 307.869 191.82 322.529C177.16 322.529 166.785 316.101 173.777 285.878Z" fill="url(#paint10_linear_1_216)"/>
<path d="M175.649 290.182C177.079 293.133 175.752 297.836 184.543 300.719C179.801 301.925 175.91 300.67 175.649 290.182Z" fill="url(#paint11_linear_1_216)"/>
<path d="M212.269 232.234C212.269 223.776 212.099 214.845 206.471 207.501C211.065 209.183 217.625 220.393 212.269 232.234Z" fill="url(#paint12_linear_1_216)"/>
<path d="M162.523 257.967C169.998 256.815 173.8 258.813 186.021 251.482C183.995 253.726 165.342 271.218 162.523 257.967Z" fill="#647B64"/>
<path d="M258.38 288.013C253.176 298.434 244.805 288.013 235.19 288.013C217.656 265.927 220.807 238.914 217.656 219.505C208.324 186.092 180.043 199.384 167.034 190.889C175.33 184.188 207.928 177.455 217.656 186.517C229.817 197.843 258.38 275.837 258.38 288.013Z" fill="#647B64"/>
<path d="M146.171 235.114L157.448 210.022L164.215 213.611L162.241 218.779C160.478 222.626 156.549 228.713 151.528 232.047C148.99 232.047 150.813 242.592 150.118 243.008C148.921 243.724 147.066 234.718 146.171 235.114Z" fill="url(#paint13_linear_1_216)"/>
</g>
<path d="M326.307 511.731L320.376 508.652C311.326 578.886 287.641 578.126 278.02 568.293C302.092 598.091 320.767 538.817 321.047 538.252C327.555 529.207 330.277 517.92 330.536 511.716L326.307 511.731Z" fill="#CAF4F3"/>
<path d="M296.375 498.589C296.163 501.704 295.185 506.267 291.484 512.717C289.27 510.102 286.179 506.658 284.559 505.68C281.747 507.664 278.405 518.953 277.563 520.084C279.374 521.882 283.03 524.575 284.632 525.697C278.804 535.868 277.607 558.333 277.738 568.294C301.505 591.89 317.954 540.613 323.207 512.025C320.252 505.72 307.101 502.309 300.896 501.392L296.375 498.589Z" fill="#F6FEFD"/>
<path d="M280.934 558.787C283.19 561.043 288.546 563.298 295.595 558.787" stroke="#14D1A4" stroke-width="1.69158" stroke-linecap="round" stroke-linejoin="round"/>
<path d="M282.062 550.893C284.318 553.149 291.366 554.84 296.723 550.893" stroke="#14D1A4" stroke-width="1.69158" stroke-linecap="round" stroke-linejoin="round"/>
<path d="M284.318 543.563C286.053 545.028 289.957 546.664 295.595 543.563" stroke="#14D1A4" stroke-width="1.69158" stroke-linecap="round" stroke-linejoin="round"/>
<path d="M278.011 566.037C284.61 571.652 300.257 574.302 310.057 539.983" stroke="#CEF4F4" stroke-width="1.12772" stroke-linecap="round" stroke-linejoin="round"/>
<path d="M305.971 524.228C297.282 526.03 293.212 526.574 287.654 526.549C287.66 528.354 288.605 529.741 289.076 530.209C295.623 531.764 303.067 526.869 305.971 524.228Z" stroke="#14D1A4" stroke-width="0.563862" stroke-linecap="round"/>
<path d="M287.658 528.241C291.05 530.766 297.613 537.001 296.728 541.741C294.468 540.245 289.488 535.452 287.658 528.241Z" stroke="#14D1A4" stroke-width="0.563862"/>
<path d="M268.793 534.859C276.752 531.131 278.527 530.041 285.961 526.63C286.368 528.582 285.889 528.56 285.804 529.219C280.644 537.645 272.707 535.164 268.793 534.859Z" stroke="#14D1A4" stroke-width="0.563862" stroke-linecap="round"/>
<path d="M286.296 527.776C283.859 531.232 279.563 539.201 281.879 543.429C283.562 541.304 286.802 535.199 286.296 527.776Z" stroke="#14D1A4" stroke-width="0.563862"/>
<circle cx="287.091" cy="527.115" r="1.12772" transform="rotate(-0.207545 287.091 527.115)" fill="#14D1A4" stroke="#14D1A4" stroke-width="0.563862"/>
<path d="M44.1427 575.13C24.0463 579.554 24.8732 565.252 27.7987 557.548C32.2981 580.215 66.3159 565.793 82.7624 555.749C82.8157 556.729 82.8825 558.853 82.7236 559.51C82.5249 560.332 69.2634 569.599 44.1427 575.13Z" fill="#C5F4F2"/>
<path d="M80.5636 545.646C83.5142 538.238 84.8431 525.89 84.7092 520.444C82.305 520.791 70.9734 517.32 66.0376 515.741C64.5805 521.77 58.444 532.759 55.6647 535.858C39.4158 542.604 30.3171 553.129 27.7989 557.547C25.1539 586.493 80.4834 561.579 82.4314 557.119C83.9899 553.551 81.8355 547.984 80.5636 545.646Z" fill="#F1FEFC"/>
<path d="M37.9091 546.945C39.5067 547.227 43.4914 548.919 46.649 553.43" stroke="#14D1A4" stroke-width="1.69158" stroke-linecap="round" stroke-linejoin="round"/>
<path d="M45.2386 541.307C46.8362 541.589 50.8209 543.28 53.9785 547.791" stroke="#14D1A4" stroke-width="1.69158" stroke-linecap="round" stroke-linejoin="round"/>
<path d="M53.697 536.232C55.2946 536.514 57.3057 536.796 60.4633 541.307" stroke="#14D1A4" stroke-width="1.69158" stroke-linecap="round" stroke-linejoin="round"/>
<path d="M68.3557 506.149L66.0376 515.741C70.3601 522.818 79.0453 523.525 83.188 522.786C83.6045 520.102 85.5936 515.633 86.536 513.734C82.6063 507.911 72.7785 506.251 68.3557 506.149Z" fill="#F7FFFD"/>
<path d="M30.1239 557.529C30.9163 562.651 36.7559 571.372 53.7759 565.276" stroke="#AAFEE7" stroke-width="1.69158"/>
<path d="M74.3247 552.259C64.6463 556.301 58.9644 564.21 56.1189 567.583C58.7424 567.288 65.4851 564.432 68.5285 563.04L74.3247 552.259Z" fill="#AAFEE7" stroke="#DAFFF5" stroke-width="0.563862"/>
<path d="M66.5149 517.535C70.3943 518.354 78.5434 520.822 80.1039 524.146C82.0547 528.3 68.6 524.095 66.5149 517.535Z" fill="white" stroke="#14D1A4" stroke-width="0.563862"/>
<path d="M66.3871 517.886C68.1195 521.864 71.3115 530.533 70.22 533.388C67.7306 531.333 63.4788 525.357 66.3871 517.886Z" fill="white" stroke="#14D1A4" stroke-width="0.563862"/>
<path d="M65.5934 517.247C61.9382 515.71 53.834 513.099 50.6586 514.942C46.6893 517.246 60.1439 521.451 65.5934 517.247Z" stroke="#14D1A4" stroke-width="0.563862"/>
<path d="M65.4984 517.608C61.809 519.892 54.2483 525.2 53.5199 528.168C56.7362 527.897 63.6347 525.405 65.4984 517.608Z" stroke="#14D1A4" stroke-width="0.563862"/>
<path d="M67.0158 518.395C66.8204 518.939 66.5095 519.37 66.1792 519.63C65.8452 519.893 65.5296 519.958 65.2877 519.871C65.0458 519.784 64.8432 519.534 64.7529 519.118C64.6636 518.707 64.6975 518.177 64.8929 517.633C65.0883 517.088 65.3991 516.658 65.7294 516.397C66.0634 516.134 66.3791 516.069 66.621 516.156C66.8629 516.243 67.0654 516.494 67.1558 516.909C67.2451 517.32 67.2112 517.85 67.0158 518.395Z" fill="#14D1A4" stroke="#14D1A4" stroke-width="0.563862"/>
<path d="M189.427 165.326C202.484 180.904 194.867 196.759 189.427 199.802C173.973 221.465 163.115 200.315 159.451 189.058C157.453 179.018 160.65 173.298 166.779 167.456C172.907 161.614 183.099 159.849 189.427 165.326Z" fill="#FF7CA6"/>
<mask id="mask6_1_216" style="mask-type:alpha" maskUnits="userSpaceOnUse" x="159" y="161" width="39" height="49">
<path d="M189.991 165.147C203.047 180.794 195.431 196.72 189.991 199.776C174.537 221.536 163.367 200.202 159.703 188.894C157.705 178.809 161.214 173.154 167.342 167.286C173.471 161.418 183.663 159.645 189.991 165.147Z" fill="#FF7CA6"/>
</mask>
<g mask="url(#mask6_1_216)">
<path d="M187.05 166.903C201.147 181.282 194.952 194.708 189.542 197.745C174.173 219.371 161.103 197.532 157.46 186.294C155.473 176.271 156.691 185.044 165.59 181.791C183.949 175.079 186.205 165.212 187.05 166.903Z" fill="#FEB3CB"/>
<path d="M187.05 168.877C201.992 189.176 192.208 197.128 186.768 200.171C171.313 221.834 159.137 195.076 155.473 183.819C158.857 184.383 161.673 189.306 170.698 184.665C180.565 179.59 180.565 181 187.05 168.877Z" fill="#FBC6D7"/>
<path d="M185.989 177.592C185.26 175.178 185.509 170.358 187.319 171.355C188.369 171.355 189.619 176.712 189.619 176.712C191.556 181.941 192.807 191.502 190.717 193.123C187.539 189.415 185.856 187.262 178.19 186.921C174.851 182.41 187.319 181.995 185.989 177.592Z" fill="#FEF2F7" fill-opacity="0.3"/>
</g>
<path d="M168.162 138.341C167.26 139.468 163.651 140.69 161.959 141.16C167.034 147.926 178.932 162.248 185.923 165.406C192.915 168.563 194.851 179.878 194.945 185.141C195.396 186.043 195.697 192.283 195.791 195.291C198.723 195.065 199.583 190.498 199.646 188.242C200.237 191.731 199.823 196.532 199.456 198.956C203.516 199.181 209.021 193.787 211.266 191.062C211.802 197.152 211.036 200.47 210.451 201.493C212.707 200.365 218.345 196.7 222.856 191.062C228.495 184.013 221.447 176.965 218.909 175.837C216.372 174.71 215.808 151.027 214.962 145.107C214.286 140.37 207.538 134.299 204.249 131.856C177.465 119.451 169.289 136.931 168.162 138.341Z" fill="url(#paint14_linear_1_216)"/>
<path d="M198.617 174.812C197.039 173.233 193.073 176.879 191.569 179.322C190.638 180.732 190.16 185.243 195.798 182.706C201.437 180.168 200.591 176.785 198.617 174.812Z" fill="#FBC6D7" stroke="url(#paint15_linear_1_216)" stroke-width="0.563862"/>
<path fill-rule="evenodd" clip-rule="evenodd" d="M195.548 177.269C194.595 178.103 193.725 179.329 193.217 180.207C193.139 180.342 192.967 180.388 192.832 180.31C192.697 180.232 192.651 180.06 192.729 179.925C193.254 179.017 194.161 177.734 195.177 176.845C195.684 176.4 196.237 176.037 196.801 175.88C197.378 175.72 197.967 175.777 198.499 176.176C198.623 176.269 198.649 176.446 198.555 176.57C198.462 176.695 198.285 176.72 198.161 176.627C197.79 176.349 197.388 176.302 196.952 176.423C196.504 176.548 196.025 176.851 195.548 177.269ZM197.305 177.029C197.426 176.93 197.604 176.948 197.702 177.068C197.927 177.343 198.148 177.683 198.29 178.039C198.429 178.389 198.504 178.791 198.378 179.163C198.246 179.553 197.917 179.839 197.398 179.994C196.888 180.145 196.171 180.179 195.196 180.064C195.041 180.046 194.93 179.906 194.948 179.751C194.967 179.597 195.107 179.486 195.261 179.504C196.203 179.615 196.833 179.573 197.237 179.453C197.632 179.336 197.786 179.154 197.844 178.982C197.909 178.792 197.882 178.54 197.766 178.247C197.651 177.959 197.464 177.668 197.266 177.425C197.167 177.305 197.185 177.127 197.305 177.029Z" fill="#FC719A"/>
<path d="M168.444 176.771C151.303 187.597 139.405 173.106 135.458 164.084C145.044 154.499 143.36 155.992 151.528 151.398C156.039 148.86 158.294 149.706 159.986 139.838C163.595 140.515 181.413 142.94 187.615 155.627L189.589 155.908C213.271 159.968 216.278 149.048 214.681 143.222C225.732 161.716 200.96 163.802 187.615 162.393C186.488 164.93 185.585 165.945 168.444 176.771Z" fill="url(#paint16_linear_1_216)"/>
<mask id="mask7_1_216" style="mask-type:alpha" maskUnits="userSpaceOnUse" x="135" y="139" width="83" height="42">
<path d="M168.444 176.771C151.303 187.597 139.405 173.106 135.458 164.084C145.044 154.499 143.36 155.992 151.528 151.398C156.039 148.86 158.294 149.706 159.986 139.838C163.595 140.515 181.413 142.94 187.615 155.627L189.589 155.908C213.271 159.968 216.278 149.048 214.681 143.222C225.732 161.716 200.96 163.802 187.615 162.393C186.488 164.93 185.585 165.945 168.444 176.771Z" fill="url(#paint17_linear_1_216)"/>
</mask>
<g mask="url(#mask7_1_216)">
<path d="M150.965 186.921L179.721 173.106C174.365 168.031 163.37 173.096 156.039 166.047C148.709 158.999 156.603 153.924 149.273 151.669L126.437 162.675L150.965 186.921Z" fill="url(#paint18_linear_1_216)" fill-opacity="0.3"/>
<path d="M147.506 156.351C137.53 160.11 138.727 161.991 135.74 165.52L133.767 162.701L143.071 152.269L158.295 136.173C164.215 139.556 158.432 148.252 156.885 149.424C153.785 151.773 152.106 151.452 149.46 154.873C148.952 155.529 148.283 156.058 147.506 156.351Z" fill="#C1DBF7"/>
</g>
<path d="M159.705 150.27C159.987 153.841 167.317 159.943 184.796 162.48" stroke="#BAD4F6" stroke-width="0.563862" stroke-linecap="round" stroke-linejoin="round"/>
<path d="M172.885 149.572C168.424 148.5 166.638 147.528 164.427 145C163.624 147.208 165.283 151.691 166.365 151.767C166.593 151.783 170.785 149.456 172.885 149.572Z" fill="#B8D2F6"/>
<path d="M167.314 220.188C156.662 208.87 130.125 182.886 118.801 173.281C118.447 172.981 118.233 172.571 118.298 172.112C119.118 166.309 131.37 145.065 146.452 130.252C148.989 124.049 150.962 124.331 153.782 116.437C156.037 110.122 162.24 109.295 165.623 110.517C166.751 110.924 165.922 112.656 163.931 113.054C161.112 113.618 159.138 116.437 159.138 118.129C159.138 119.291 158.011 126.587 166.187 123.204C168.442 120.384 169.852 125.177 160.83 131.662C153.782 134.763 133.765 164.614 136.02 166.057C141.957 167.82 150.483 181.543 169.57 186.92C189.587 192.559 208.194 204.4 201.428 220.188C194.662 235.976 180.847 234.566 167.314 220.188Z" fill="#FF7CA6"/>
<mask id="mask8_1_216" style="mask-type:alpha" maskUnits="userSpaceOnUse" x="118" y="110" width="85" height="122">
<path d="M167.316 220.188C156.664 208.87 130.126 182.886 118.802 173.281C118.449 172.981 118.234 172.571 118.299 172.112C119.119 166.309 131.371 145.065 146.453 130.252C148.99 124.049 150.964 124.331 153.783 116.437C156.039 110.122 162.241 109.295 165.624 110.517C166.752 110.924 165.923 112.656 163.933 113.054C161.113 113.618 159.14 116.437 159.14 118.129C159.14 119.291 158.012 126.587 166.188 123.204C168.444 120.384 169.853 125.177 160.831 131.662C153.783 134.763 133.766 164.614 136.022 166.057C141.958 167.82 150.484 181.543 169.571 186.92C189.588 192.559 208.196 204.4 201.43 220.188C194.663 235.976 180.849 234.566 167.316 220.188Z" fill="#FF7CA6"/>
</mask>
<g mask="url(#mask8_1_216)">
<path d="M163.654 222.358C153.002 211.04 126.464 185.056 115.141 175.451C114.787 175.151 114.572 174.741 114.637 174.282C115.457 168.479 127.709 147.235 142.791 132.422C145.329 126.22 147.302 126.502 150.121 118.607C152.377 112.292 162.24 108.167 165.623 109.389C166.751 109.796 167.05 112.938 165.059 113.336C162.24 113.9 160.548 116.083 159.984 118.057C159.665 119.175 157.447 125.754 165.623 122.371C167.878 119.552 169.006 126.023 157.729 132.422C150.681 135.523 130.104 166.784 132.36 168.227C138.296 169.99 146.822 183.713 165.909 189.09C185.927 194.729 204.534 206.57 197.768 222.358C191.001 238.146 177.187 236.737 163.654 222.358Z" fill="#FEB3CB"/>
<mask id="mask9_1_216" style="mask-type:alpha" maskUnits="userSpaceOnUse" x="114" y="109" width="86" height="125">
<path d="M163.654 222.358C153.002 211.04 126.464 185.056 115.141 175.451C114.787 175.151 114.572 174.741 114.637 174.282C115.457 168.479 127.709 147.235 142.791 132.422C145.329 126.22 147.302 126.502 150.121 118.607C152.377 112.292 162.24 108.167 165.623 109.389C166.751 109.796 167.05 112.938 165.059 113.336C162.24 113.9 160.548 116.083 159.984 118.057C159.665 119.175 157.447 125.754 165.623 122.371C167.878 119.552 169.006 126.023 157.729 132.422C150.681 135.523 130.104 166.784 132.36 168.227C138.296 169.99 146.822 183.713 165.909 189.09C185.927 194.729 204.534 206.57 197.768 222.358C191.001 238.146 177.187 236.737 163.654 222.358Z" fill="#FEB3CB"/>
</mask>
<g mask="url(#mask9_1_216)">
<path d="M160.834 222.572C150.182 211.254 123.645 185.27 112.321 175.665C111.967 175.365 111.753 174.956 111.817 174.497C112.637 168.694 124.889 147.449 139.971 132.636C142.509 126.434 144.482 126.716 147.302 118.822C149.557 112.506 165.904 107.603 169.288 108.825C170.415 109.232 171.543 115.659 166.186 114.746C163.352 114.262 163.654 116.848 163.09 118.822C162.77 119.939 159.42 124.049 167.596 120.666C169.851 117.847 170.133 123.289 158.856 129.688C151.808 132.789 127.285 166.998 129.54 168.442C135.476 170.204 144.002 183.928 163.09 189.304C183.107 194.943 201.714 206.784 194.948 222.572C188.182 238.36 174.367 236.951 160.834 222.572Z" fill="#FBC6D7"/>
<path d="M164.213 111.363C170.698 116.437 170.484 107.416 166.187 106.57C161.394 108.449 147.398 114.633 145.82 115.31C143.846 116.155 115.439 174.233 113.184 175.925C111.38 177.278 125.683 186.074 130.946 193.968L189.587 238.232C190.997 232.311 187.163 229.717 181.975 227.236C175.491 224.135 171.262 222.443 168.442 217.369C165.623 212.294 152.654 199.607 146.734 193.968C140.813 188.33 121.642 174.797 121.642 170.568C121.642 167.627 130.664 153.37 140.813 138.146C153.782 126.587 157.709 106.273 164.213 111.363Z" fill="#FEF2F7"/>
</g>
</g>
<path d="M273.885 273.755C282.563 294.224 278.148 294.516 253.304 305.049C228.46 315.583 201.649 332.406 192.971 311.937C184.292 291.467 169.809 243.087 194.653 232.553C219.497 222.019 265.206 253.286 273.885 273.755Z" fill="url(#paint19_linear_1_216)"/>
<ellipse cx="234.459" cy="292.751" rx="50.8716" ry="44.0786" transform="rotate(-22.9766 234.459 292.751)" fill="url(#paint20_radial_1_216)" fill-opacity="0.5"/>
<ellipse cx="234.205" cy="293.404" rx="47.3623" ry="40.1515" transform="rotate(-22.9766 234.205 293.404)" fill="#C5F0C9"/>
<ellipse cx="233.997" cy="292.27" rx="44.827" ry="36.9329" transform="rotate(-22.9766 233.997 292.27)" fill="url(#paint21_radial_1_216)"/>
<mask id="mask10_1_216" style="mask-type:alpha" maskUnits="userSpaceOnUse" x="190" y="254" width="88" height="77">
<ellipse cx="233.997" cy="292.271" rx="44.827" ry="36.9329" transform="rotate(-22.9766 233.997 292.271)" fill="#D16035"/>
</mask>
<g mask="url(#mask10_1_216)">
<path d="M250.39 231.029C258.113 249.244 246.496 271.877 223.985 281.422C201.474 290.966 177.13 283.581 169.407 265.366C161.684 247.151 173.301 224.518 195.812 214.973C218.323 205.429 242.667 212.814 250.39 231.029Z" stroke="url(#paint22_radial_1_216)" stroke-width="1.69158"/>
<path d="M296.392 334.216C304.166 352.551 295.32 373.867 276.589 381.809C257.857 389.751 236.385 381.289 228.612 362.954C220.838 344.619 229.684 323.303 248.415 315.361C267.146 307.419 288.618 315.881 296.392 334.216Z" stroke="url(#paint23_linear_1_216)" stroke-width="1.69158"/>
</g>
<circle cx="125.547" cy="181.547" r="91.9069" transform="rotate(-150 125.547 181.547)" fill="url(#paint24_linear_1_216)"/>
<defs>
<linearGradient id="paint0_linear_1_216" x1="265.427" y1="22.5545" x2="218.627" y2="118.693" gradientUnits="userSpaceOnUse">
<stop stop-color="#FFFF97" stop-opacity="0.945806"/>
<stop offset="0.456015" stop-color="white"/>
<stop offset="1" stop-color="white" stop-opacity="0.4"/>
</linearGradient>
<linearGradient id="paint1_linear_1_216" x1="261.527" y1="374.665" x2="239.119" y2="524.17" gradientUnits="userSpaceOnUse">
<stop stop-color="#FF78A3"/>
<stop offset="1" stop-color="#FF8EB2"/>
</linearGradient>
<linearGradient id="paint2_linear_1_216" x1="199.747" y1="307.586" x2="175.773" y2="393.011" gradientUnits="userSpaceOnUse">
<stop stop-color="#647B64"/>
<stop offset="1" stop-color="#647B64"/>
</linearGradient>
<linearGradient id="paint3_linear_1_216" x1="199.747" y1="307.586" x2="175.773" y2="393.011" gradientUnits="userSpaceOnUse">
<stop stop-color="#647B64"/>
<stop offset="1" stop-color="#647B64"/>
</linearGradient>
<linearGradient id="paint4_linear_1_216" x1="218.909" y1="349.03" x2="206.222" y2="347.338" gradientUnits="userSpaceOnUse">
<stop stop-color="#C1C5FF"/>
<stop offset="1" stop-color="#C1C5FF" stop-opacity="0"/>
</linearGradient>
<linearGradient id="paint5_linear_1_216" x1="206.503" y1="335.497" x2="201.71" y2="348.466" gradientUnits="userSpaceOnUse">
<stop stop-color="#C1C5FF"/>
<stop offset="1" stop-color="#C7CAFF" stop-opacity="0"/>
</linearGradient>
<linearGradient id="paint6_linear_1_216" x1="163.087" y1="329.295" x2="159.14" y2="311.534" gradientUnits="userSpaceOnUse">
<stop stop-color="#DBF3F8"/>
<stop offset="1" stop-color="#99B5F3"/>
</linearGradient>
<linearGradient id="paint7_linear_1_216" x1="191.641" y1="191.149" x2="195.306" y2="344.801" gradientUnits="userSpaceOnUse">
<stop stop-color="#647B64"/>
<stop offset="1" stop-color="#647B64"/>
</linearGradient>
<linearGradient id="paint8_linear_1_216" x1="191.642" y1="191.149" x2="195.307" y2="344.801" gradientUnits="userSpaceOnUse">
<stop stop-color="#647B64"/>
<stop offset="1" stop-color="#647B64"/>
</linearGradient>
<linearGradient id="paint9_linear_1_216" x1="156.317" y1="271.729" x2="169.152" y2="326.114" gradientUnits="userSpaceOnUse">
<stop stop-color="#99B5F3"/>
<stop offset="1" stop-color="#DBF3F8"/>
</linearGradient>
<linearGradient id="paint10_linear_1_216" x1="185.618" y1="329.295" x2="166.446" y2="301.384" gradientUnits="userSpaceOnUse">
<stop stop-color="#C1C5FF"/>
<stop offset="1" stop-color="#C1C5FF" stop-opacity="0"/>
</linearGradient>
<linearGradient id="paint11_linear_1_216" x1="186.768" y1="314.635" x2="174.327" y2="296.035" gradientUnits="userSpaceOnUse">
<stop stop-color="#C1C5FF"/>
<stop offset="1" stop-color="#C1C5FF" stop-opacity="0"/>
</linearGradient>
<linearGradient id="paint12_linear_1_216" x1="212.706" y1="203.836" x2="217.265" y2="228.868" gradientUnits="userSpaceOnUse">
<stop stop-color="#C1C5FF"/>
<stop offset="1" stop-color="#C1C5FF" stop-opacity="0"/>
</linearGradient>
<linearGradient id="paint13_linear_1_216" x1="165.342" y1="243.572" x2="158.576" y2="207.767" gradientUnits="userSpaceOnUse">
<stop stop-color="#647B64"/>
<stop offset="1" stop-color="#DBF3F8"/>
</linearGradient>
<linearGradient id="paint14_linear_1_216" x1="193.254" y1="155.256" x2="193.473" y2="201.493" gradientUnits="userSpaceOnUse">
<stop stop-color="#050753"/>
<stop offset="1" stop-color="#008294"/>
</linearGradient>
<linearGradient id="paint15_linear_1_216" x1="198.611" y1="176.965" x2="192.126" y2="180.066" gradientUnits="userSpaceOnUse">
<stop stop-color="#FC719A"/>
<stop offset="1" stop-color="#FC719A" stop-opacity="0"/>
</linearGradient>
<linearGradient id="paint16_linear_1_216" x1="138.841" y1="178.181" x2="218.91" y2="152.807" gradientUnits="userSpaceOnUse">
<stop stop-color="#647B64"/>
<stop offset="0.511301" stop-color="#647B64"/>
<stop offset="0.857583" stop-color="#5EC0DF"/>
<stop offset="1" stop-color="white"/>
</linearGradient>
<linearGradient id="paint17_linear_1_216" x1="180.567" y1="160.419" x2="223.984" y2="155.345" gradientUnits="userSpaceOnUse">
<stop stop-color="#02C3CD"/>
<stop offset="1" stop-color="white"/>
</linearGradient>
<linearGradient id="paint18_linear_1_216" x1="151.81" y1="178.181" x2="154.066" y2="157.036" gradientUnits="userSpaceOnUse">
<stop stop-color="white"/>
<stop offset="1" stop-color="#003BD5" stop-opacity="0"/>
<stop offset="1" stop-color="white"/>
</linearGradient>
<linearGradient id="paint19_linear_1_216" x1="194.38" y1="247.254" x2="241.641" y2="329.291" gradientUnits="userSpaceOnUse">
<stop stop-color="#F5FF7C" stop-opacity="0"/>
<stop offset="0.544444" stop-color="#F0DCC5"/>
<stop offset="1" stop-color="#AD8B64"/>
</linearGradient>
<radialGradient id="paint20_radial_1_216" cx="0" cy="0" r="1" gradientUnits="userSpaceOnUse" gradientTransform="translate(235.069 346.765) rotate(-84.1426) scale(65.0671 75.1295)">
<stop stop-color="#FFEC3E"/>
<stop offset="1" stop-color="#F0DCC5"/>
</radialGradient>
<radialGradient id="paint21_radial_1_216" cx="0" cy="0" r="1" gradientUnits="userSpaceOnUse" gradientTransform="translate(231.594 260.728) rotate(91.0357) scale(86.0166 104.402)">
<stop stop-color="#F0DCC5"/>
<stop offset="0.546875" stop-color="#F0DCC5"/>
<stop offset="1" stop-color="#CF9B5E"/>
</radialGradient>
<radialGradient id="paint22_radial_1_216" cx="0" cy="0" r="1" gradientUnits="userSpaceOnUse" gradientTransform="translate(220.036 297.156) rotate(-100.46) scale(55.9055 67.8548)">
<stop stop-color="white"/>
<stop offset="1" stop-color="white" stop-opacity="0"/>
</radialGradient>
<linearGradient id="paint23_linear_1_216" x1="240.616" y1="299.975" x2="254.994" y2="327.322" gradientUnits="userSpaceOnUse">
<stop stop-color="white"/>
<stop offset="1" stop-color="white" stop-opacity="0"/>
</linearGradient>
<linearGradient id="paint24_linear_1_216" x1="310.455" y1="-433.354" x2="75.2172" y2="294.242" gradientUnits="userSpaceOnUse">
<stop stop-color="#EF8031" stop-opacity="0"/>
<stop offset="0.692955" stop-color="#EF8031" stop-opacity="0.15"/>
<stop offset="1" stop-color="#EF8031" stop-opacity="0"/>
</linearGradient>
<clipPath id="clip0_1_216">
<rect width="120.96" height="158.096" fill="white" transform="translate(188.988) rotate(26.2336)"/>
</clipPath>
</defs>
</svg>
