<svg width="209" height="50" viewBox="0 0 209 50" fill="none" xmlns="http://www.w3.org/2000/svg">
<g clip-path="url(#clip0_53_37)">
<path d="M28.2594 34.4693C27.2607 34.4693 26.3633 33.8593 25.9959 32.9307L24.5358 29.2407C24.1683 28.312 23.271 27.702 22.2723 27.702H12.2755C11.2601 27.702 10.3514 28.3323 9.99558 29.2834L8.64709 32.888C8.29131 33.839 7.38255 34.4693 6.36714 34.4693H2.66095C0.921392 34.4693 -0.256736 32.6975 0.416183 31.0934L12.8335 1.49262C13.2128 0.588368 14.0976 0 15.0782 0H19.9164C20.9002 0 21.7873 0.592157 22.1646 1.50072L34.4564 31.1015C35.1221 32.7046 33.9441 34.4693 32.2083 34.4693H28.2594ZM19.6176 15.4509C18.8454 13.3186 15.8337 13.3077 15.046 15.4343L14.1875 17.7524C13.5986 19.3423 14.7748 21.0321 16.4702 21.0321H18.1682C19.8562 21.0321 21.0318 19.3561 20.457 17.769L19.6176 15.4509Z" fill="#647B64"/>
<path d="M67.9874 36.0761C67.9874 38.1533 67.6303 40.052 66.9163 41.7723C66.2347 43.46 65.2447 44.9206 63.9465 46.1539C62.6482 47.3549 61.074 48.2961 59.224 48.9777C57.4064 49.6593 55.3778 50.0001 53.1383 50.0001C50.8663 50.0001 48.8215 49.6593 47.0039 48.9777C45.1863 48.2961 43.6446 47.3549 42.3788 46.1539C41.113 44.9206 40.1392 43.46 39.4576 41.7723C38.7761 40.052 38.4353 38.1533 38.4353 36.0761V25.9496C38.4353 24.6051 37.3454 23.5153 36.001 23.5153H35.8549H28.2981C27.21 23.5153 26.254 22.7932 25.9566 21.7465L24.808 17.7055C24.3662 16.1512 25.5337 14.6057 27.1495 14.6057H44.2775C45.6219 14.6057 46.7118 15.6956 46.7118 17.04V35.3945C46.7118 36.3357 46.8254 37.2283 47.0526 38.0722C47.3122 38.916 47.6855 39.6788 48.1724 40.3604C48.6917 41.0095 49.357 41.5288 50.1685 41.9183C51.0123 42.3078 52.0185 42.5025 53.187 42.5025C54.3554 42.5025 55.3453 42.3078 56.1568 41.9183C57.0007 41.5288 57.6823 41.0095 58.2016 40.3604C58.7209 39.6788 59.0941 38.916 59.3213 38.0722C59.5485 37.2283 59.6621 36.3357 59.6621 35.3945V17.04C59.6621 15.6956 60.752 14.6057 62.0964 14.6057H65.5531C66.8975 14.6057 67.9874 15.6956 67.9874 17.04V36.0761Z" fill="#647B64"/>
<path d="M85.726 19.3577C85.9896 18.7519 86.5873 18.3601 87.2479 18.3601C87.9106 18.3601 88.5099 18.7544 88.7721 19.3631L93.6501 30.6864C94.0237 31.5537 93.3877 32.5201 92.4434 32.5201C91.9092 32.5201 91.4282 32.1967 91.2267 31.702L90.9 30.9001C90.5009 29.9205 89.5485 29.2801 88.4907 29.2801H85.8418C84.7907 29.2801 83.8462 29.9224 83.46 30.9001L83.1395 31.7114C82.9467 32.1994 82.4752 32.5201 81.9504 32.5201C81.0296 32.5201 80.4107 31.576 80.7781 30.7316L85.726 19.3577ZM87.1671 27.1201C88.2267 27.1201 88.9588 26.0602 88.5838 25.0692C88.0916 23.7687 86.2538 23.7631 85.7538 25.0606C85.3713 26.0529 86.1037 27.1201 87.1671 27.1201Z" fill="#647B64"/>
<path d="M94.6577 20.0393C94.4123 19.1999 95.0417 18.3601 95.9162 18.3601C96.5117 18.3601 97.0324 18.7614 97.1842 19.3373L99.6615 28.7404C99.6646 28.752 99.6751 28.7601 99.6871 28.7601C99.6987 28.7601 99.709 28.7525 99.7124 28.7413L102.454 19.6018C102.675 18.8648 103.354 18.3601 104.123 18.3601C104.896 18.3601 105.577 18.8692 105.795 19.6107L108.481 28.7411C108.484 28.7524 108.495 28.7601 108.506 28.7601C108.518 28.7601 108.529 28.7521 108.532 28.7406L111.073 19.3042C111.222 18.7472 111.728 18.3601 112.304 18.3601C113.155 18.3601 113.768 19.1772 113.529 19.9939L110.212 31.3378C110.008 32.0385 109.365 32.5201 108.635 32.5201C107.916 32.5201 107.281 32.053 107.066 31.367L104.113 21.9192C104.109 21.9078 104.099 21.9001 104.087 21.9001C104.075 21.9001 104.064 21.9078 104.061 21.9192L101.107 31.367C100.893 32.053 100.257 32.5201 99.5385 32.5201C98.8085 32.5201 98.1659 32.0385 97.961 31.3378L94.6577 20.0393Z" fill="#647B64"/>
<path d="M115.685 21.3601C115.685 19.7032 117.028 18.3601 118.685 18.3601H123.965C124.572 18.3601 125.065 18.8526 125.065 19.4601C125.065 20.0676 124.572 20.5601 123.965 20.5601H120.005C119.011 20.5601 118.205 21.366 118.205 22.3601C118.205 23.3542 119.011 24.1601 120.005 24.1601H123.645C124.23 24.1601 124.705 24.6347 124.705 25.2201C124.705 25.8055 124.23 26.2801 123.645 26.2801H120.205C119.1 26.2801 118.205 27.1755 118.205 28.2801C118.205 29.3847 119.1 30.2801 120.205 30.2801H124.305C124.923 30.2801 125.425 30.7815 125.425 31.4001C125.425 32.0187 124.923 32.5201 124.305 32.5201H118.685C117.028 32.5201 115.685 31.177 115.685 29.5201V21.3601Z" fill="#647B64"/>
<path d="M136.008 20.3367C135.541 20.8494 134.695 20.8143 134.073 20.5081C134.04 20.4918 134.006 20.4757 133.972 20.46C133.492 20.22 133.005 20.1 132.512 20.1C132.219 20.1 131.925 20.14 131.632 20.22C131.339 20.2867 131.072 20.4 130.832 20.56C130.592 20.7067 130.392 20.9067 130.232 21.16C130.085 21.4 130.012 21.6933 130.012 22.04C130.012 22.36 130.079 22.6333 130.212 22.86C130.345 23.0867 130.525 23.28 130.752 23.44C130.992 23.6 131.279 23.74 131.612 23.86C131.945 23.98 132.312 24.1 132.712 24.22C133.165 24.3667 133.632 24.5333 134.112 24.72C134.605 24.9067 135.052 25.1533 135.452 25.46C135.865 25.7667 136.199 26.1533 136.452 26.62C136.719 27.0867 136.852 27.6667 136.852 28.36C136.852 29.12 136.712 29.7867 136.432 30.36C136.152 30.92 135.779 31.3867 135.312 31.76C134.845 32.1333 134.299 32.4133 133.672 32.6C133.045 32.7867 132.385 32.88 131.692 32.88C130.772 32.88 129.872 32.7133 128.992 32.38C128.49 32.1824 128.041 31.9329 127.643 31.6313C127.142 31.2514 127.192 30.5236 127.652 30.0946C128.172 29.6091 129.004 29.7087 129.604 30.0916C129.733 30.1739 129.869 30.2501 130.012 30.32C130.599 30.6 131.172 30.74 131.732 30.74C132.025 30.74 132.325 30.7067 132.632 30.64C132.939 30.56 133.212 30.4333 133.452 30.26C133.705 30.0867 133.905 29.8733 134.052 29.62C134.212 29.3533 134.292 29.0267 134.292 28.64C134.292 28.2667 134.205 27.96 134.032 27.72C133.859 27.4667 133.625 27.2533 133.332 27.08C133.039 26.8933 132.692 26.7333 132.292 26.6C131.892 26.4667 131.472 26.3267 131.032 26.18C130.605 26.0467 130.179 25.8867 129.752 25.7C129.325 25.5133 128.939 25.2667 128.592 24.96C128.259 24.6533 127.985 24.28 127.772 23.84C127.559 23.3867 127.452 22.8267 127.452 22.16C127.452 21.44 127.599 20.82 127.892 20.3C128.199 19.78 128.592 19.3533 129.072 19.02C129.565 18.6733 130.119 18.42 130.732 18.26C131.359 18.0867 131.992 18 132.632 18C133.352 18 134.079 18.1267 134.812 18.38C135.189 18.5081 135.541 18.6685 135.868 18.8613C136.394 19.1724 136.42 19.8845 136.008 20.3367Z" fill="#647B64"/>
<path d="M138.696 25.4C138.696 24.2667 138.883 23.2467 139.256 22.34C139.643 21.42 140.17 20.64 140.836 20C141.516 19.36 142.316 18.8667 143.236 18.52C144.17 18.1733 145.183 18 146.276 18C147.383 18 148.403 18.1733 149.336 18.52C150.27 18.8667 151.076 19.36 151.756 20C152.436 20.64 152.963 21.42 153.336 22.34C153.723 23.2467 153.916 24.2667 153.916 25.4C153.916 26.5067 153.723 27.52 153.336 28.44C152.963 29.3467 152.436 30.1333 151.756 30.8C151.076 31.4533 150.27 31.9667 149.336 32.34C148.403 32.7 147.383 32.88 146.276 32.88C145.183 32.88 144.17 32.7 143.236 32.34C142.316 31.9667 141.516 31.4533 140.836 30.8C140.17 30.1333 139.643 29.3467 139.256 28.44C138.883 27.52 138.696 26.5067 138.696 25.4ZM141.436 25.4C141.436 26.16 141.55 26.86 141.776 27.5C142.016 28.1267 142.35 28.6733 142.776 29.14C143.216 29.6067 143.73 29.9733 144.316 30.24C144.916 30.4933 145.576 30.62 146.296 30.62C147.016 30.62 147.676 30.4933 148.276 30.24C148.876 29.9733 149.39 29.6067 149.816 29.14C150.256 28.6733 150.59 28.1267 150.816 27.5C151.056 26.86 151.176 26.16 151.176 25.4C151.176 24.6667 151.056 23.9867 150.816 23.36C150.59 22.7333 150.263 22.1867 149.836 21.72C149.41 21.2533 148.896 20.8867 148.296 20.62C147.696 20.3533 147.03 20.22 146.296 20.22C145.563 20.22 144.896 20.3533 144.296 20.62C143.71 20.8867 143.203 21.2533 142.776 21.72C142.35 22.1867 142.016 22.7333 141.776 23.36C141.55 23.9867 141.436 24.6667 141.436 25.4Z" fill="#647B64"/>
<path d="M156.349 20.6791C156.349 19.3984 157.387 18.3601 158.668 18.3601C159.641 18.3601 160.511 18.9682 160.846 19.8824L163.959 28.392C163.965 28.4089 163.981 28.4201 163.999 28.4201C164.017 28.4201 164.033 28.4088 164.039 28.3918L167.113 19.8955C167.447 18.974 168.322 18.3601 169.302 18.3601C170.587 18.3601 171.629 19.402 171.629 20.6873V31.2701C171.629 31.9605 171.069 32.5201 170.379 32.5201C169.689 32.5201 169.129 31.9605 169.129 31.2701V21.1637C169.129 21.1507 169.118 21.1401 169.105 21.1401C169.095 21.1401 169.087 21.1462 169.083 21.1554L165.099 31.6989C164.912 32.1931 164.439 32.5201 163.911 32.5201C163.381 32.5201 162.906 32.1905 162.721 31.6934L158.795 21.1555C158.791 21.1462 158.782 21.1401 158.773 21.1401C158.759 21.1401 158.749 21.1507 158.749 21.1637V31.3201C158.749 31.9828 158.212 32.5201 157.549 32.5201C156.886 32.5201 156.349 31.9828 156.349 31.3201V20.6791Z" fill="#647B64"/>
<path d="M174.747 21.3601C174.747 19.7032 176.09 18.3601 177.747 18.3601H183.027C183.635 18.3601 184.127 18.8526 184.127 19.4601C184.127 20.0676 183.635 20.5601 183.027 20.5601H179.067C178.073 20.5601 177.267 21.366 177.267 22.3601C177.267 23.3542 178.073 24.1601 179.067 24.1601H182.707C183.293 24.1601 183.767 24.6347 183.767 25.2201C183.767 25.8055 183.293 26.2801 182.707 26.2801H179.267C178.163 26.2801 177.267 27.1755 177.267 28.2801C177.267 29.3847 178.163 30.2801 179.267 30.2801H183.367C183.986 30.2801 184.487 30.7815 184.487 31.4001C184.487 32.0187 183.986 32.5201 183.367 32.5201H177.747C176.09 32.5201 174.747 31.177 174.747 29.5201V21.3601Z" fill="#647B64"/>
<path d="M203.234 27.3201C203.234 28.1734 203.088 28.9468 202.794 29.6401C202.501 30.3201 202.101 30.9001 201.594 31.3801C201.088 31.8601 200.488 32.2334 199.794 32.5001C199.101 32.7534 198.348 32.8801 197.534 32.8801C196.721 32.8801 195.968 32.7534 195.274 32.5001C194.581 32.2334 193.974 31.8601 193.454 31.3801C192.948 30.9001 192.548 30.3201 192.254 29.6401C191.974 28.9468 191.834 28.1734 191.834 27.3201V19.6201C191.834 18.9242 192.398 18.3601 193.094 18.3601C193.79 18.3601 194.354 18.9242 194.354 19.6201V27.2201C194.354 27.6334 194.408 28.0468 194.514 28.4601C194.621 28.8601 194.794 29.2201 195.034 29.5401C195.288 29.8601 195.614 30.1201 196.014 30.3201C196.428 30.5201 196.934 30.6201 197.534 30.6201C198.134 30.6201 198.634 30.5201 199.034 30.3201C199.448 30.1201 199.774 29.8601 200.014 29.5401C200.268 29.2201 200.448 28.8601 200.554 28.4601C200.661 28.0468 200.714 27.6334 200.714 27.2201V19.6201C200.714 18.9242 201.279 18.3601 201.974 18.3601C202.67 18.3601 203.234 18.9242 203.234 19.6201V27.3201Z" fill="#647B64"/>
<path d="M206.232 19.6201C206.232 18.9242 206.796 18.3601 207.492 18.3601C208.188 18.3601 208.752 18.9242 208.752 19.6201V31.2601C208.752 31.956 208.188 32.5201 207.492 32.5201C206.796 32.5201 206.232 31.956 206.232 31.2601V19.6201Z" fill="#647B64"/>
</g>
<defs>
<clipPath id="clip0_53_37">
<rect width="209" height="50" fill="white"/>
</clipPath>
</defs>
</svg>
