<svg width="64" height="67" viewBox="0 0 64 67" fill="none" xmlns="http://www.w3.org/2000/svg">
<path d="M40.053 6.13479C34.7196 5.28197 29.2797 5.28197 23.9464 6.13479C21.7597 6.49243 20.1597 8.41813 20.1597 10.674V20.7978H10.3463C8.15967 20.7978 6.29302 22.4484 5.94635 24.7043C5.11969 30.2063 5.11969 35.8184 5.94635 41.3205C6.29302 43.5763 8.15967 45.227 10.3463 45.227H14.8263C15.573 45.227 16.1597 44.6217 16.1597 43.8514V39.1197C16.1597 33.48 20.613 28.8858 26.0797 28.8858H37.9197C38.9863 28.8858 39.8397 28.0055 39.8397 26.9051V18.0467C39.8397 17.2764 40.4263 16.6712 41.173 16.6712H42.5063C43.253 16.6712 43.8397 16.066 43.8397 15.2957V10.674C43.8397 8.41813 42.2396 6.49243 40.053 6.13479ZM27.5463 15.3507C26.453 15.3507 25.413 14.2778 25.413 13.1499C25.413 11.9945 26.453 10.9216 27.5463 10.9216C28.0796 10.9216 28.6664 11.1692 29.0397 11.5543C29.4397 11.9395 29.7064 12.5722 29.7064 13.1499C29.7064 14.2778 28.6663 15.3507 27.5463 15.3507Z" fill="#647B64"/>
<path d="M58.0528 24.7042C57.7061 22.4484 55.8395 20.7977 53.6528 20.7977H45.1728C44.4262 20.7977 43.8395 21.403 43.8395 22.1732V26.905C43.8395 30.2613 41.1995 33.0123 37.9195 33.0123H26.0795C22.7995 33.0123 20.1595 35.7359 20.1595 39.1196V55.3507C20.1595 57.6066 21.7595 59.5323 23.9462 59.8899C29.2795 60.7427 34.7195 60.7427 40.0528 59.8899C42.2395 59.5323 43.8395 57.6066 43.8395 55.3507V45.2269H53.6528C55.8395 45.2269 57.7061 43.5763 58.0528 41.3204C58.8795 35.8184 58.8795 30.2063 58.0528 24.7042ZM36.4529 55.1031C35.3595 55.1031 34.2928 54.0302 34.2928 52.8748C34.2928 51.7194 35.3329 50.6465 36.4529 50.6465C36.9595 50.6465 37.5729 50.8941 37.9462 51.2517C38.3462 51.6368 38.6129 52.2971 38.6129 52.8473C38.5862 54.0302 37.5462 55.1031 36.4529 55.1031Z" fill="#647B64"/>
</svg>
