<svg width="56" height="56" viewBox="0 0 56 56" fill="none" xmlns="http://www.w3.org/2000/svg">
<g clip-path="url(#clip0_53_22)">
<g filter="url(#filter0_d_53_22)">
<path d="M44 0H12C7.58172 0 4 3.58172 4 8V40C4 44.4183 7.58172 48 12 48H44C48.4183 48 52 44.4183 52 40V8C52 3.58172 48.4183 0 44 0Z" fill="white"/>
</g>
<path d="M28 30.75C27.59 30.75 27.25 30.41 27.25 30V29C27.25 28.59 27.59 28.25 28 28.25C28.41 28.25 28.75 28.59 28.75 29V30C28.75 30.41 28.41 30.75 28 30.75Z" fill="#647B64"/>
<path d="M28 34.75C27.59 34.75 27.25 34.41 27.25 34V33C27.25 32.59 27.59 32.25 28 32.25C28.41 32.25 28.75 32.59 28.75 33V34C28.75 34.41 28.41 34.75 28 34.75Z" fill="#647B64"/>
<path d="M18 34.75C17.94 34.75 17.88 34.74 17.82 34.73C17.42 34.63 17.17 34.22 17.27 33.82L18.27 29.82C18.37 29.42 18.77 29.17 19.18 29.27C19.58 29.37 19.83 29.78 19.73 30.18L18.73 34.18C18.64 34.52 18.34 34.75 18 34.75Z" fill="#647B64"/>
<path d="M37.7526 34.5026C37.4126 34.5026 37.1126 34.2726 37.0226 33.9326L36.0226 29.9326C35.9226 29.5326 36.1626 29.1226 36.5726 29.0226C36.9726 28.9226 37.3826 29.1626 37.4826 29.5726L38.4826 33.5726C38.5826 33.9726 38.3426 34.3826 37.9326 34.4826C37.8726 34.4926 37.8126 34.5026 37.7526 34.5026Z" fill="#647B64"/>
<path d="M35.14 17.3C35.14 17.6 34.89 17.84 34.6 17.84H21.53C21.23 17.84 20.99 17.59 20.99 17.3C20.99 17 21.24 16.76 21.53 16.76H22.27L22.55 15.45C22.81 14.17 23.35 13 25.51 13H30.6C32.76 13 33.31 14.17 33.57 15.44L33.85 16.75H34.59C34.89 16.75 35.14 17 35.14 17.3Z" fill="#647B64"/>
<path d="M35.45 21.4001C35.34 20.2001 35.02 18.9301 32.69 18.9301H23.43C21.1 18.9301 20.79 20.2101 20.67 21.4001L20.26 25.8201C20.21 26.3701 20.39 26.9201 20.77 27.3401C21.16 27.7601 21.7 28.0001 22.28 28.0001H23.64C24.82 28.0001 25.04 27.3301 25.19 26.8801L25.34 26.4401C25.51 25.9401 25.55 25.8201 26.2 25.8201H29.92C30.57 25.8201 30.59 25.8901 30.78 26.4401L30.93 26.8801C31.07 27.3301 31.3 28.0001 32.47 28.0001H33.83C34.4 28.0001 34.95 27.7601 35.34 27.3401C35.72 26.9301 35.9 26.3701 35.85 25.8201L35.45 21.4001ZM25.88 22.9201H23.71C23.41 22.9201 23.17 22.6701 23.17 22.3801C23.17 22.0901 23.42 21.8401 23.71 21.8401H25.89C26.19 21.8401 26.43 22.0901 26.43 22.3801C26.43 22.6701 26.18 22.9201 25.88 22.9201ZM32.41 22.9201H30.23C29.93 22.9201 29.69 22.6701 29.69 22.3801C29.69 22.0901 29.94 21.8401 30.23 21.8401H32.41C32.71 21.8401 32.95 22.0901 32.95 22.3801C32.95 22.6701 32.71 22.9201 32.41 22.9201Z" fill="#647B64"/>
</g>
<defs>
<filter id="filter0_d_53_22" x="0" y="0" width="56" height="56" filterUnits="userSpaceOnUse" color-interpolation-filters="sRGB">
<feFlood flood-opacity="0" result="BackgroundImageFix"/>
<feColorMatrix in="SourceAlpha" type="matrix" values="0 0 0 0 0 0 0 0 0 0 0 0 0 0 0 0 0 0 127 0" result="hardAlpha"/>
<feOffset dy="4"/>
<feGaussianBlur stdDeviation="2"/>
<feColorMatrix type="matrix" values="0 0 0 0 0 0 0 0 0 0 0 0 0 0 0 0 0 0 0.04 0"/>
<feBlend mode="normal" in2="BackgroundImageFix" result="effect1_dropShadow_53_22"/>
<feBlend mode="normal" in="SourceGraphic" in2="effect1_dropShadow_53_22" result="shape"/>
</filter>
<clipPath id="clip0_53_22">
<rect width="56" height="56" fill="white"/>
</clipPath>
</defs>
</svg>
