<svg width="64" height="67" viewBox="0 0 64 67" fill="none" xmlns="http://www.w3.org/2000/svg">
<path d="M31.9998 5.50201C17.2798 5.50201 5.33313 17.8266 5.33313 33.0124C5.33313 48.1981 17.2798 60.5227 31.9998 60.5227C46.7198 60.5227 58.6665 48.1981 58.6665 33.0124C58.6665 17.8266 46.7198 5.50201 31.9998 5.50201ZM43.9998 39.2022H35.8665L41.1731 46.9601C41.8131 47.8955 41.5998 49.1884 40.6932 49.8212C40.3465 50.0688 39.9464 50.2063 39.5464 50.2063C38.9064 50.2063 38.2931 49.9037 37.9198 49.326L31.7865 40.3576L25.6531 49.326C25.2531 49.9037 24.6398 50.2063 24.0265 50.2063C23.6265 50.2063 23.2264 50.0963 22.8798 49.8212C21.9731 49.1609 21.7598 47.868 22.3998 46.9601L27.7065 39.2022H20.0531C18.9598 39.2022 18.0531 38.2668 18.0531 37.1389C18.0531 36.011 18.9598 35.0756 20.0531 35.0756H44.0531C45.1464 35.0756 46.0531 36.011 46.0531 37.1389C46.0531 38.2668 45.0931 39.2022 43.9998 39.2022ZM43.9998 30.9491H19.9998C18.9065 30.9491 17.9998 30.0137 17.9998 28.8858C17.9998 27.7579 18.9065 26.8225 19.9998 26.8225H27.6531L22.3465 19.0646C21.7065 18.1292 21.9198 16.8363 22.8265 16.2035C23.7331 15.5433 24.9865 15.7634 25.5998 16.6987L31.7331 25.6671L37.8665 16.6987C38.5065 15.7634 39.7598 15.5433 40.6398 16.2035C41.5464 16.8638 41.7598 18.1568 41.1198 19.0646L35.8131 26.8225H43.9465C45.0398 26.8225 45.9465 27.7579 45.9465 28.8858C45.9465 30.0137 45.0931 30.9491 43.9998 30.9491Z" fill="#647B64"/>
</svg>
